<!--?xml version="1.0" encoding="utf-8"?-->
<!-- Generator: Adobe Illustrator 15.1.0, SVG Export Plug-In . SVG Version: 6.00 Build 0)  -->

<svg version="1.1" id="_x32_" xmlns="http://www.w3.org/2000/svg" xmlns:xlink="http://www.w3.org/1999/xlink" x="0px" y="0px" width="512px" height="512px" viewBox="0 0 512 512" style="width: 256px; height: 256px; opacity: 1;" xml:space="preserve">
<style type="text/css">

	.st0{fill:#4B4B4B;}

</style>
<g>
	<path class="st0" d="M512,355.353c0,0-31.109-43.156-33.344-43.156c-2.25,0,29.438-28.828,29.438-28.828l-40.375-34.094
		c0,0,19.453-17,20.219-17.453c-17.719-21.484-64.344-38.938-64.344-38.938s15.875-20.578,22.594-24.156
		c-20.516-18.875-52.781-27.719-71.813-35.859c-8.609-38.188-35.125-80.375-52.516-84.984c-13.172-3.5-47.781,73.844-47.781,73.844
		s-55.672,18.797-82.25,56.391s-53.797,29-79.656,22.453c-42.703-10.781-70.203-32.234-81.328-37.391
		c1.297-2.5,2.063-5.375,2.063-8.438c0-9.641-7.375-17.453-16.453-17.453C7.359,137.29,0,145.103,0,154.743
		c0,8.703,6,15.891,13.844,17.203c-8.594,14.672,0.719,92.25,18.547,114.938c5.016,6.391,11.578,10.547,19.078,13.188
		c4.469,11.531,11.656,23.047,18.875,23.047c0-8.266-1.188-13.391,0.906-19.25c5.906,0.422,12.031,0.422,18.188,0.219
		c4.031,7.016,8.922,12.328,13.813,12.328c0-5.297-0.484-9.313-0.281-13.063c1.781-0.109,3.563-0.234,5.344-0.359
		c39.219-2.688,58.328,15.594,39.219,44.297c-4.156,6.25-9.578,12.578-15.391,18.547c-2.703-2.609-3.656-5.906-6.109-10.484
		c-4.188,2.531-4.781,11.734-3.813,20.016c-4.625,4.219-9.219,8.047-13.281,11.297c-4.313-3.141-5.234-7.188-8.438-13.125
		c-4.688,2.828-5.375,13.094-4.313,22.391c-0.734,0.453-1.344,0.813-1.797,1.047c-18.984,9.391-6.078,35.625,11.375,33.563
		c12.172-1.422,36.203-3.25,58.484-4.828l55.438,19.609l-5.875-21.328l64.094,22.672l-1.281-22.828c0,0,89.391,37.594,92.375,40.281
		c3,2.672-6.313-42.969-6.313-42.969l63.25,26.844c0,0-0.281-37.141-2.531-38.938c-2.219-1.781,54.422-1.344,54.422-1.344
		l-6.313-37.594L512,355.353z M320.906,125.759l-8.844-21.484l-7.594,16.109l-11.406-1.344c0,0,10.203-34.047,28.234-43.453
		c12.344,20.141,21.141,56.891,21.141,60.906C336.094,133.821,320.906,125.759,320.906,125.759z" style="fill: rgb(52, 152, 219);"></path>
</g>
</svg>
