<!--?xml version="1.0" encoding="utf-8"?-->
<!-- Generator: Adobe Illustrator 19.1.1, SVG Export Plug-In . SVG Version: 6.00 Build 0)  -->
<svg version="1.1" id="_x31_0" xmlns="http://www.w3.org/2000/svg" xmlns:xlink="http://www.w3.org/1999/xlink" x="0px" y="0px" viewBox="0 0 512 512" style="width: 256px; height: 256px; opacity: 1;" xml:space="preserve">
<style type="text/css">
	.st0{fill:#374149;}
</style>
<g>
	<path class="st0" d="M301.547,479.576v-20.078l0.136-17.274c-0.042,0.074-0.094,0.149-0.136,0.222v-0.301
		c-0.699,1.242-1.555,2.485-2.332,3.727c-12.657,3.445-25.977,5.554-39.586,6.262c-0.527,0.023-1.043,0.082-1.57,0.098v-48.75
		l0.07-22.218h0.008c14.754-0.39,29.274-1.789,43.41-3.883v-16.605l0.023-2.574c-0.008,0-0.016,0-0.023,0.004v-0.161
		c-13.477,2.094-27.481,3.489-41.825,3.938c-0.55,0.012-1.117,0.082-1.664,0.09v-97.454h43.489v-4.812
		c0-4.477,0.582-8.746,1.648-12.902c0.122-0.398,0.16-0.836,0.293-1.227h-0.035c0.016-0.054,0.02-0.109,0.035-0.16h-45.43v-64.234
		l0.082-33.226c30.207,0.934,58.707,5.746,84.562,13.047c3.882,13.898,7.066,28.652,9.242,43.953
		c1.476-0.156,2.949-0.234,4.426-0.234h12.98l1.774,0.023c0-0.007-0.004-0.015-0.004-0.023h0.161
		c-1.442-10.16-3.387-20.113-5.602-29.93c-0.493-2.336-0.926-4.672-1.45-7c3.625,1.262,7.187,2.57,10.687,3.91
		c0.086,0.035,0.176,0.066,0.262,0.102c6.441,2.476,12.633,5.09,18.621,7.785c1.008,0.457,2.023,0.902,3.027,1.371
		c4.25,1.961,8.348,3.973,12.348,6.016c3.207,1.644,6.39,3.304,9.504,5.031c1.535,0.847,3.113,1.687,4.605,2.542
		c5.551,3.211,10.966,6.524,16.133,9.985c0.024,0.07,0.047,0.141,0.047,0.187h48.695c0.942,0,1.883,0.09,2.828,0.18
		c0.234,0.05,0.516,0.015,0.742,0.086c-0.004-0.011-0.008-0.027-0.012-0.043c0.055,0.008,0.11,0.004,0.168,0.012
		C470.606,100.916,383.629,20.076,276.461,8.193c-9.16-1.164-18.48-1.633-27.957-1.633c-9.394,0-18.715,0.469-27.957,1.633
		C105.848,20.928,14.446,112.49,1.55,227.111C0.543,236.276,0,245.596,0,255.068c0,9.398,0.543,18.714,1.55,27.878
		c12.895,114.778,104.298,206.184,218.997,219.074c9.242,1.008,18.562,1.555,27.957,1.555c9.477,0,18.797-0.547,27.957-1.555
		c8.859-1.015,17.566-2.492,26.09-4.449c0.532-0.114,1.11-0.203,1.641-0.317c-0.004-0.008-0.004-0.012-0.008-0.019
		c0.055-0.012,0.106-0.02,0.157-0.031C302.554,491.615,301.547,485.712,301.547,479.576z M304.207,72.131
		c3.16,5.203,6.305,10.718,9.39,16.515c0.289,0.543,0.57,1.094,0.859,1.641c2.594,4.934,5.137,10.078,7.622,15.402
		c1.633,3.523,3.25,7.054,4.781,10.66c0.817,1.898,1.61,3.836,2.406,5.778c2.317,5.722,4.551,11.5,6.578,17.363
		c-24.59-5.965-50.723-9.762-77.707-10.539c0,0,0,0-0.078,0V57.818c0.078,0,0.078,0,0.078,0c14.133,0.622,27.953,2.793,41.078,6.367
		c1.625,2.496,3.246,5.078,4.867,7.738C304.121,71.99,304.164,72.06,304.207,72.131z M358.082,145.646
		c-8.078-26.324-18.563-50.398-30.055-71.21c37.805,16.594,69.191,44.789,90.07,80.004c3.969,6.77,7.684,13.714,10.844,21.004
		C408.176,164.072,384.25,153.701,358.082,145.646z M238.946,452.24c-14.129-0.622-27.95-2.794-41.074-6.367
		c-1.606-2.454-3.215-4.996-4.821-7.618c-0.078-0.125-0.152-0.25-0.23-0.375c-11.414-18.675-22.609-41.39-31.679-67.179
		c24.617,5.98,50.789,9.785,77.812,10.562v67.828L238.946,452.24z M67.95,334.513c20.812,11.493,44.808,21.821,71.058,30.055
		c6.679,21.504,14.918,41.382,23.938,59.351c1.918,3.898,3.824,7.805,5.851,11.61C123.844,415.709,87.726,379.568,67.95,334.513z
		 M63.594,309.432c-2-1.242-3.996-2.485-5.894-3.73c-3.57-13.125-5.746-26.946-6.367-41.082h70.977
		c0.672,23.305,3.714,45.958,8.367,67.598c0.695,3.367,1.324,6.742,2.106,10.106c-11.004-3.844-21.45-8.086-31.262-12.574
		c-0.074-0.035-0.152-0.07-0.23-0.105c-6.179-2.832-12.086-5.766-17.738-8.754c-0.531-0.281-1.062-0.554-1.59-0.836
		c-4.945-2.648-9.641-5.336-14.148-8.042C66.398,311.154,64.984,310.303,63.594,309.432z M65.977,199.272
		c18.621-11.391,41.234-22.454,66.894-31.414c-5.977,24.618-9.786,50.633-10.562,77.582c0,0,0,0,0,0.078H75.828l-24.496-0.086
		c0.621-14.133,2.797-27.797,6.367-40.918c2.39-1.574,4.867-3.148,7.41-4.714C65.398,199.623,65.687,199.447,65.977,199.272z
		 M173.93,107.814c2.786-6.058,5.668-11.855,8.606-17.418c0.332-0.629,0.656-1.258,0.988-1.883c2.645-4.941,5.336-9.64,8.035-14.152
		c0.84-1.398,1.676-2.789,2.527-4.164c1.262-2.039,2.528-4.07,3.786-6.012c13.125-3.574,26.949-5.746,41.082-6.367v71.133
		c-23.355,0.672-46.007,3.711-67.636,8.356c-3.383,0.699-6.766,1.328-10.145,2.113c3.816-10.914,8.035-21.277,12.496-31.027
		C173.754,108.201,173.84,108.006,173.93,107.814z M141.414,245.436c0.934-30.133,5.746-58.551,12.89-84.332
		c25.938-7.301,54.363-12.118,84.648-13.047v97.461h-64.347L141.414,245.436z M168.984,74.436
		c-11.418,20.812-21.902,44.886-29.976,71.21c-21.535,6.63-41.442,14.867-59.43,23.902c-3.871,1.906-7.754,3.797-11.535,5.813
		C87.863,130.33,124.004,94.209,168.984,74.436z M238.95,362.08c-30.286-0.851-58.707-5.746-84.645-12.89
		c-7.145-25.703-11.957-54.207-12.89-84.57h97.538v95.297L238.95,362.08z" style="fill: rgb(52, 152, 219);"></path>
	<path class="st0" d="M496.39,237.44c-2.562-1.008-5.359-1.551-8.308-1.551h-43.024h-70.746h-17.942c-0.387,0-0.852,0-1.242,0.078
		c-7.297,0.309-13.746,4.035-17.781,9.55c-3.031,3.961-4.738,8.93-4.738,14.29v4.812v87.211v19.648v8.231v47.37v6.371v46.126
		c0,3.031,0.542,5.98,1.55,8.699c3.574,10.019,13.047,17.164,24.309,17.164h127.594c14.211,0,25.938-11.574,25.938-25.863v-219.77
		C512,249.478,505.477,240.779,496.39,237.44z M437.137,470.959c-0.386,7.922-6.91,14.054-14.832,14.054
		c-8,0-14.523-6.133-14.832-14.054c0.309-7.844,6.754-14.133,14.832-14.133C430.226,456.826,436.75,463.115,437.137,470.959z
		 M366.778,436.166v-23.219v-51.254v-20.348v-10.562v-39.058h6.137h69.582h35.258v59.019v85.422H418.5H366.778z M401.18,267.65
		c0-1.246,0.542-2.332,1.398-3.031c0.699-0.621,1.554-0.93,2.484-0.93h34.324c0.934,0,1.867,0.309,2.489,0.93
		c0.93,0.699,1.473,1.786,1.473,3.031c0,2.094-1.786,3.883-3.962,3.883h-34.324C402.89,271.533,401.18,269.744,401.18,267.65z" style="fill: rgb(52, 152, 219);"></path>
</g>
</svg>
