<!--?xml version="1.0" encoding="utf-8"?-->
<!-- Generator: Adobe Illustrator 18.1.1, SVG Export Plug-In . SVG Version: 6.00 Build 0)  -->

<svg version="1.1" id="_x32_" xmlns="http://www.w3.org/2000/svg" xmlns:xlink="http://www.w3.org/1999/xlink" x="0px" y="0px" viewBox="0 0 512 512" style="width: 256px; height: 256px; opacity: 1;" xml:space="preserve">
<style type="text/css">
	.st0{fill:#4B4B4B;}
</style>
<g>
	<path class="st0" d="M480.169,261.752c-0.708-1.859-1.059-3.804-1.059-5.756c0-1.952,0.351-3.903,1.059-5.755l18.695-49.082
		c1.614-4.24,2.395-8.653,2.395-12.993c0.006-12.041-5.98-23.657-16.533-30.551l-43.986-28.719c-3.315-2.163-5.729-5.49-6.762-9.321
		l-13.727-50.702c-4.334-15.976-18.808-26.958-35.215-26.965c-0.615,0-1.23,0.02-1.852,0.053l0.926-0.053l-53.236,2.666l-0.919,0.02
		c-3.698,0-7.278-1.257-10.162-3.572L278.89,8.078C272.228,2.699,264.091-0.007,256.006,0c-8.091-0.007-16.228,2.699-22.903,8.078
		l0.007,0.007l-40.904,32.939c-2.878,2.315-6.47,3.572-10.162,3.572l-0.595-0.013l-52.654-2.62h0.1
		c-0.721-0.039-1.363-0.046-1.932-0.046c-16.407,0-30.875,10.989-35.208,26.958l-13.727,50.702c-1.032,3.83-3.447,7.158-6.762,9.321
		l-43.986,28.719c-10.552,6.894-16.546,18.517-16.539,30.557c0,4.34,0.78,8.746,2.388,12.98l18.709,49.088
		c0.701,1.852,1.059,3.804,1.059,5.755c0,1.952-0.351,3.897-1.059,5.749L13.135,310.84c-1.614,4.227-2.394,8.633-2.394,12.973
		c-0.007,12.04,5.98,23.67,16.539,30.57l43.986,28.719c3.315,2.163,5.729,5.478,6.762,9.308l13.727,50.702
		c4.334,15.976,18.808,26.958,35.208,26.958c0.569,0,1.171-0.007,1.82-0.04l52.475-2.62l0.099-0.007l0.714-0.02
		c3.672,0.006,7.251,1.263,10.135,3.586l40.904,32.952c6.668,5.372,14.798,8.078,22.896,8.078c8.084,0,16.222-2.699,22.89-8.078
		L319.8,470.97c2.884-2.329,6.457-3.586,10.135-3.586l0.787,0.026l52.23,2.606l0.351,0.014c0.542,0.026,1.118,0.04,1.733,0.04
		c16.4,0,30.882-10.976,35.215-26.958l13.727-50.702c1.032-3.83,3.44-7.145,6.755-9.308l43.993-28.719
		c10.552-6.906,16.539-18.524,16.533-30.564c0-4.34-0.781-8.753-2.395-12.987L480.169,261.752z M473.606,337.375l-43.98,28.711
		c-7.495,4.889-12.927,12.371-15.269,21.018L400.63,437.8c-1.906,7.086-8.342,11.948-15.593,11.948l-0.886-0.02l-51.463-2.574
		l-0.894-0.039c-0.596-0.033-1.21-0.053-1.859-0.053c-8.309,0-16.393,2.845-22.89,8.084l-40.904,32.952
		c-2.97,2.388-6.529,3.572-10.135,3.572c-3.612,0-7.172-1.184-10.141-3.572l-40.904-32.952c-6.496-5.239-14.581-8.084-22.89-8.084
		c-0.542,0.006-1.164,0.013-1.832,0.053l-52.462,2.62l-0.814,0.014c-7.244,0.006-13.681-4.869-15.586-11.941l-13.727-50.709
		c-2.342-8.64-7.774-16.122-15.276-21.011l-43.98-28.718c-4.677-3.05-7.324-8.21-7.33-13.555c0-1.919,0.344-3.851,1.058-5.729
		l18.702-49.094c1.594-4.181,2.395-8.586,2.395-12.993c0-4.406-0.801-8.812-2.395-13l-18.702-49.074
		c-0.715-1.892-1.058-3.83-1.058-5.749c0.006-5.345,2.646-10.492,7.323-13.542l43.994-28.718
		c7.495-4.902,12.927-12.385,15.269-21.024l13.727-50.708c1.906-7.072,8.35-11.948,15.586-11.941l0.715,0.013l0.225,0.013
		l51.774,2.586l0.608,0.027l1.76,0.039c8.316,0,16.4-2.832,22.91-8.064l40.904-32.952l-6.371-7.912l6.378,7.905
		c2.97-2.388,6.529-3.565,10.141-3.579c3.606,0.007,7.165,1.191,10.135,3.586l40.911,32.946c6.51,5.246,14.601,8.071,22.904,8.071
		c0.615,0,1.177-0.013,1.687-0.033l53.506-2.672l-0.893,0.046l0.78-0.026c7.244,0,13.688,4.876,15.593,11.948l13.727,50.708
		c2.342,8.64,7.774,16.122,15.269,21.018l43.987,28.725c4.677,3.05,7.324,8.197,7.324,13.536c0,1.919-0.338,3.85-1.066,5.762
		l-18.689,49.074c-1.601,4.188-2.395,8.594-2.395,12.993c0,4.406,0.801,8.812,2.395,12.993l18.696,49.082
		c0.721,1.898,1.059,3.83,1.059,5.749C480.937,329.159,478.29,334.319,473.606,337.375z" style="fill: rgb(52, 152, 219);"></path>
	<path class="st0" d="M165.753,268.527l-30.716,6.866c-0.509,0.119-0.814-0.079-0.926-0.582l-4.029-18.008
		c-0.112-0.502,0.079-0.807,0.589-0.919l36.888-8.256c0.747-0.165,1.138-0.787,0.972-1.541l-3.016-13.47
		c-0.166-0.754-0.787-1.145-1.528-0.979l-54.896,12.278c-0.754,0.172-1.151,0.794-0.979,1.548l18.589,83.092
		c0.172,0.754,0.787,1.138,1.549,0.966l15.983-3.573c0.755-0.172,1.145-0.78,0.973-1.534l-7.211-32.231
		c-0.112-0.504,0.086-0.814,0.595-0.927l30.716-6.873c0.754-0.166,1.144-0.787,0.973-1.541l-2.984-13.344
		C167.123,268.745,166.507,268.355,165.753,268.527z" style="fill: rgb(52, 152, 219);"></path>
	<path class="st0" d="M238.439,267.865c8.507-6.272,12.351-16.254,9.903-27.203c-3.493-15.613-17.524-23.975-35.03-20.058
		l-34.11,7.634c-0.754,0.165-1.151,0.78-0.979,1.541l18.59,83.086c0.172,0.754,0.788,1.144,1.549,0.979l15.983-3.579
		c0.754-0.172,1.145-0.787,0.973-1.541l-6.848-30.591c-0.106-0.502,0.086-0.814,0.596-0.926l11.452-2.56l21.745,28.05
		c0.569,0.801,1.039,1.092,2.17,0.84l17.882-4.009c0.88-0.192,1.079-1.032,0.543-1.706L238.439,267.865z M220.649,258.094
		l-15.104,3.381c-0.509,0.112-0.82-0.086-0.933-0.59l-4.419-19.767c-0.112-0.503,0.079-0.808,0.589-0.92l15.103-3.38
		c7.052-1.581,12.516,1.555,13.952,7.985C231.301,251.346,227.701,256.512,220.649,258.094z" style="fill: rgb(52, 152, 219);"></path>
	<path class="st0" d="M328.212,267.998l-36.888,8.256c-0.502,0.112-0.807-0.079-0.926-0.589l-3.969-17.749
		c-0.112-0.503,0.08-0.808,0.582-0.926l30.723-6.867c0.754-0.172,1.151-0.794,0.979-1.548l-2.983-13.338
		c-0.172-0.761-0.794-1.151-1.549-0.979l-30.716,6.867c-0.503,0.118-0.808-0.08-0.927-0.582l-3.797-16.996
		c-0.113-0.503,0.079-0.814,0.582-0.919l36.888-8.257c0.748-0.172,1.138-0.787,0.973-1.541l-3.016-13.469
		c-0.165-0.761-0.787-1.144-1.528-0.979l-54.896,12.279c-0.754,0.172-1.151,0.787-0.979,1.541l18.59,83.091
		c0.172,0.755,0.787,1.145,1.548,0.973l54.89-12.278c0.747-0.165,1.138-0.787,0.966-1.541l-3.01-13.469
		C329.575,268.223,328.96,267.832,328.212,267.998z" style="fill: rgb(52, 152, 219);"></path>
	<path class="st0" d="M399.316,252.094l-36.882,8.25c-0.503,0.113-0.814-0.086-0.926-0.588l-3.97-17.75
		c-0.113-0.502,0.086-0.814,0.588-0.919l30.71-6.88c0.768-0.165,1.152-0.781,0.986-1.535l-2.984-13.35
		c-0.172-0.754-0.787-1.144-1.548-0.979l-30.716,6.88c-0.503,0.106-0.807-0.086-0.919-0.589l-3.804-16.996
		c-0.112-0.503,0.08-0.807,0.582-0.926l36.882-8.25c0.768-0.172,1.158-0.787,0.992-1.541l-3.016-13.47
		c-0.172-0.761-0.78-1.151-1.548-0.979L328.86,194.75c-0.754,0.171-1.151,0.787-0.979,1.541l18.59,83.092
		c0.172,0.754,0.788,1.145,1.542,0.973l54.882-12.279c0.768-0.172,1.158-0.787,0.986-1.542l-3.017-13.47
		C400.699,252.312,400.084,251.922,399.316,252.094z" style="fill: rgb(52, 152, 219);"></path>
</g>
</svg>
