<!--?xml version="1.0" encoding="utf-8"?-->
<!-- Generator: Adobe Illustrator 18.1.1, SVG Export Plug-In . SVG Version: 6.00 Build 0)  -->

<svg version="1.1" id="_x31_0" xmlns="http://www.w3.org/2000/svg" xmlns:xlink="http://www.w3.org/1999/xlink" x="0px" y="0px" viewBox="0 0 512 512" style="width: 256px; height: 256px; opacity: 1;" xml:space="preserve">
<style type="text/css">
	.st0{fill:#374149;}
</style>
<g>
	<path class="st0" d="M503.01,325.535l-52.039-111.058c-15.484-33.054-49.078-54.414-85.586-54.414H146.612
		c-36.5,0-70.094,21.356-85.586,54.414L8.991,325.535c-13.793,29.434-11.614,63.383,5.828,90.813
		c17.438,27.426,47.254,43.804,79.758,43.804c36.508,0,70.106-21.359,85.582-54.41l3.066-6.539
		c15.262-32.625,28.168-34.074,53.605-34.074h38.344c23.851,0,41.11,5.637,53.606,34.078l3.058,6.531
		c15.488,33.058,49.078,54.414,85.586,54.414c32.504,0,62.325-16.378,79.762-43.808C514.623,388.914,516.799,354.965,503.01,325.535
		z M467.386,397.398c-10.926,17.184-29.602,27.438-49.962,27.438c-22.867,0-43.906-13.375-53.609-34.078l-2.879-6.137
		c-21.566-49.125-59.274-54.804-85.762-54.804H236.83c-32.898,0-62.05,4.094-85.582,54.406l-3.066,6.535
		c-9.699,20.703-30.742,34.078-53.606,34.078c-20.355,0-39.035-10.254-49.957-27.434c-10.922-17.183-12.289-38.446-3.652-56.882
		l52.038-111.059c9.703-20.706,30.746-34.082,53.606-34.082h218.774c22.867,0,43.906,13.375,53.609,34.082L471.03,340.52
		C479.67,358.953,478.307,380.219,467.386,397.398z" style="fill: rgb(52, 152, 219);"></path>
	<rect x="242.757" y="51.848" class="st0" width="26.488" height="83.141" style="fill: rgb(52, 152, 219);"></rect>
	<circle class="st0" cx="338.526" cy="267.793" r="25.188" style="fill: rgb(52, 152, 219);"></circle>
	<path class="st0" d="M272.62,286.102h-33.242c-6.172,0-11.176,5.004-11.176,11.18c0,6.175,5.004,11.179,11.176,11.179h33.246
		c6.171,0,11.175-5.007,11.175-11.179C283.799,291.106,278.795,286.102,272.62,286.102z" style="fill: rgb(52, 152, 219);"></path>
	<path class="st0" d="M193.417,255.586H183.03c-4.626,0-8.375-3.75-8.375-8.375v-10.387c0-4.625-3.75-8.374-8.375-8.374h-7.668
		c-4.625,0-8.375,3.75-8.375,8.374v10.387c0,4.625-3.75,8.375-8.374,8.375l-10.387-0.004c-4.625,0-8.375,3.75-8.375,8.374v7.668
		c0,4.626,3.75,8.375,8.375,8.375h10.387c4.625,0,8.374,3.75,8.374,8.375v10.386c0,4.626,3.75,8.375,8.375,8.375h7.668
		c4.625,0,8.375-3.75,8.375-8.375v-10.386c0-4.625,3.75-8.375,8.371-8.375h10.39c4.625,0,8.375-3.746,8.375-8.371l-0.004-7.672
		C201.788,259.332,198.042,255.586,193.417,255.586z" style="fill: rgb(52, 152, 219);"></path>
</g>
</svg>
